<svg width="120" height="120" viewBox="0 0 120 120" fill="none" xmlns="http://www.w3.org/2000/svg">
<circle cx="50" cy="50" r="55" transform="matrix(-1 0 0 1 110 10)" fill="url(#paint0_radial_4219_709)"/>
<circle cx="50" cy="50" r="55" transform="matrix(-1 0 0 1 110 10)" fill="url(#paint1_linear_4219_709)"/>
<circle cx="50" cy="50" r="55" transform="matrix(-1 0 0 1 110 10)" stroke="black" stroke-width="10"/>
<path fill-rule="evenodd" clip-rule="evenodd" d="M71.1126 47.015C71.6316 45.5848 70.9694 45.0653 69.6424 45.8487L48.0934 58.5763C46.7625 59.3623 46.7665 60.639 48.0934 61.4225L69.6424 74.1501C70.9733 74.9361 71.6322 74.4153 71.1126 72.9838L70.7914 72.0975C68.3667 65.4158 68.3661 54.585 70.7914 47.9007L71.1126 47.015Z" fill="white"/>
<defs>
<radialGradient id="paint0_radial_4219_709" cx="0" cy="0" r="1" gradientUnits="userSpaceOnUse" gradientTransform="translate(35.6707 50) rotate(75.8524) scale(76.0883 73.4558)">
<stop stop-color="#171B20"/>
<stop offset="1" stop-color="#1F2326"/>
</radialGradient>
<linearGradient id="paint1_linear_4219_709" x1="-3.48406" y1="2.42867" x2="112.109" y2="6.36474" gradientUnits="userSpaceOnUse">
<stop stop-color="#7EB4C2"/>
<stop offset="0.377531" stop-color="#7ABFD1"/>
<stop offset="1" stop-color="#64A6B8"/>
</linearGradient>
</defs>
</svg>
