<svg width="295" height="22" viewBox="0 0 295 22" fill="none" xmlns="http://www.w3.org/2000/svg">
<path d="M31.19 17V4.76H32.3375L37.1485 15.0535L41.934 4.76H43.0985V16.9915H41.9085V7.548L37.548 17H36.7405L32.3885 7.548V17H31.19ZM49.3174 17.255C48.4051 17.255 47.6259 17.0482 46.9799 16.6345C46.3339 16.2208 45.8381 15.6485 45.4924 14.9175C45.1468 14.1865 44.9739 13.3478 44.9739 12.4015C44.9739 11.4382 45.1496 10.5938 45.5009 9.8685C45.8523 9.14317 46.3509 8.57933 46.9969 8.177C47.6486 7.769 48.4221 7.565 49.3174 7.565C50.2354 7.565 51.0174 7.77183 51.6634 8.1855C52.3151 8.5935 52.8109 9.163 53.1509 9.894C53.4966 10.6193 53.6694 11.4552 53.6694 12.4015C53.6694 13.3648 53.4966 14.212 53.1509 14.943C52.8053 15.6683 52.3066 16.235 51.6549 16.643C51.0033 17.051 50.2241 17.255 49.3174 17.255ZM49.3174 16.0565C50.3374 16.0565 51.0968 15.7193 51.5954 15.045C52.0941 14.365 52.3434 13.4838 52.3434 12.4015C52.3434 11.2908 52.0913 10.4068 51.5869 9.7495C51.0883 9.09217 50.3318 8.7635 49.3174 8.7635C48.6318 8.7635 48.0651 8.91933 47.6174 9.231C47.1754 9.537 46.8439 9.96483 46.6229 10.5145C46.4076 11.0585 46.2999 11.6875 46.2999 12.4015C46.2999 13.5065 46.5549 14.3933 47.0649 15.062C47.5749 15.725 48.3258 16.0565 49.3174 16.0565ZM54.3585 17L58.2345 12.41L54.52 7.82H55.931L59.552 12.3505V7.82H60.708V12.3505L64.329 7.82H65.7315L62.017 12.41L65.893 17H64.4395L60.708 12.4695V17H59.552V12.4695L55.812 17H54.3585ZM66.0666 17V15.9035C66.4066 15.9658 66.6644 15.9517 66.8401 15.861C67.0214 15.7647 67.1546 15.606 67.2396 15.385C67.3246 15.1583 67.3954 14.8778 67.4521 14.5435C67.5427 13.9882 67.6249 13.3762 67.6986 12.7075C67.7722 12.0388 67.8374 11.3022 67.8941 10.4975C67.9564 9.68717 68.0187 8.79467 68.0811 7.82H74.3201V17H73.0791V9.0185H69.2371C69.1974 9.61917 69.1521 10.217 69.1011 10.812C69.0501 11.407 68.9962 11.9793 68.9396 12.529C68.8886 13.073 68.8319 13.5745 68.7696 14.0335C68.7072 14.4925 68.6421 14.8892 68.5741 15.2235C68.4721 15.7278 68.3361 16.1302 68.1661 16.4305C68.0017 16.7308 67.7552 16.9292 67.4266 17.0255C67.0979 17.1218 66.6446 17.1133 66.0666 17ZM83.9879 7.82V17H82.7724V9.8515L77.7404 17H76.6864V7.82H77.9019V14.909L82.9424 7.82H83.9879ZM86.3651 17V7.82H90.1476C90.3403 7.82 90.5726 7.83133 90.8446 7.854C91.1223 7.87667 91.3801 7.91917 91.6181 7.9815C92.1338 8.1175 92.5474 8.39517 92.8591 8.8145C93.1764 9.23383 93.3351 9.73817 93.3351 10.3275C93.3351 10.6562 93.2841 10.9508 93.1821 11.2115C93.0858 11.4665 92.9469 11.6875 92.7656 11.8745C92.6806 11.9708 92.5871 12.0558 92.4851 12.1295C92.3831 12.1975 92.2839 12.2542 92.1876 12.2995C92.3689 12.3335 92.5644 12.4128 92.7741 12.5375C93.1028 12.7302 93.3521 12.9908 93.5221 13.3195C93.6921 13.6425 93.7771 14.0363 93.7771 14.501C93.7771 15.13 93.6269 15.6428 93.3266 16.0395C93.0263 16.4362 92.6239 16.7082 92.1196 16.8555C91.8929 16.9178 91.6464 16.9575 91.3801 16.9745C91.1194 16.9915 90.8729 17 90.6406 17H86.3651ZM87.6231 15.9375H90.5811C90.7001 15.9375 90.8503 15.929 91.0316 15.912C91.2129 15.8893 91.3744 15.861 91.5161 15.827C91.8504 15.742 92.0941 15.572 92.2471 15.317C92.4058 15.0563 92.4851 14.773 92.4851 14.467C92.4851 14.0647 92.3661 13.736 92.1281 13.481C91.8958 13.2203 91.5841 13.0617 91.1931 13.005C91.0628 12.9767 90.9268 12.9597 90.7851 12.954C90.6434 12.9483 90.5159 12.9455 90.4026 12.9455H87.6231V15.9375ZM87.6231 11.8745H90.1901C90.3374 11.8745 90.5018 11.866 90.6831 11.849C90.8701 11.8263 91.0316 11.7895 91.1676 11.7385C91.4623 11.6365 91.6776 11.4608 91.8136 11.2115C91.9553 10.9622 92.0261 10.6902 92.0261 10.3955C92.0261 10.0725 91.9496 9.78917 91.7966 9.5455C91.6493 9.30183 91.4254 9.13183 91.1251 9.0355C90.9211 8.96183 90.7001 8.91933 90.4621 8.908C90.2298 8.89667 90.0824 8.891 90.0201 8.891H87.6231V11.8745ZM98.0978 17.255C97.4064 17.255 96.8256 17.1303 96.3553 16.881C95.8906 16.6317 95.5421 16.3002 95.3098 15.8865C95.0774 15.4728 94.9613 15.0223 94.9613 14.535C94.9613 14.0363 95.0604 13.6113 95.2588 13.26C95.4628 12.903 95.7376 12.6112 96.0833 12.3845C96.4346 12.1578 96.8398 11.985 97.2988 11.866C97.7634 11.7527 98.2763 11.6535 98.8373 11.5685C99.4039 11.4778 99.9564 11.4013 100.495 11.339C101.039 11.271 101.515 11.2058 101.923 11.1435L101.481 11.4155C101.498 10.5088 101.322 9.83733 100.954 9.401C100.585 8.96467 99.9451 8.7465 99.0328 8.7465C98.4038 8.7465 97.8711 8.88817 97.4348 9.1715C97.0041 9.45483 96.7009 9.9025 96.5252 10.5145L95.3098 10.1575C95.5194 9.33583 95.9416 8.69833 96.5763 8.245C97.2109 7.79167 98.0354 7.565 99.0498 7.565C99.8884 7.565 100.6 7.72367 101.183 8.041C101.773 8.35267 102.189 8.806 102.433 9.401C102.546 9.66733 102.62 9.96483 102.654 10.2935C102.688 10.6222 102.705 10.9565 102.705 11.2965V17H101.591V14.6965L101.914 14.8325C101.603 15.6202 101.118 16.2208 100.461 16.6345C99.8034 17.0482 99.0158 17.255 98.0978 17.255ZM98.2423 16.1755C98.8259 16.1755 99.3359 16.0707 99.7723 15.861C100.209 15.6513 100.56 15.3652 100.826 15.0025C101.093 14.6342 101.265 14.2205 101.345 13.7615C101.413 13.4668 101.45 13.1438 101.455 12.7925C101.461 12.4355 101.464 12.1692 101.464 11.9935L101.94 12.24C101.515 12.2967 101.053 12.3533 100.554 12.41C100.061 12.4667 99.5739 12.5318 99.0923 12.6055C98.6163 12.6792 98.1856 12.767 97.8003 12.869C97.5396 12.9427 97.2874 13.0475 97.0438 13.1835C96.8001 13.3138 96.5989 13.4895 96.4403 13.7105C96.2873 13.9315 96.2108 14.2063 96.2108 14.535C96.2108 14.8013 96.2759 15.0592 96.4062 15.3085C96.5423 15.5578 96.7576 15.7647 97.0523 15.929C97.3526 16.0933 97.7493 16.1755 98.2423 16.1755ZM112.443 17.255C111.599 17.255 110.885 17.0425 110.301 16.6175C109.718 16.1868 109.276 15.606 108.975 14.875C108.675 14.1383 108.525 13.3138 108.525 12.4015C108.525 11.4722 108.675 10.6448 108.975 9.9195C109.281 9.1885 109.729 8.61333 110.318 8.194C110.908 7.77467 111.633 7.565 112.494 7.565C113.333 7.565 114.053 7.7775 114.653 8.2025C115.254 8.6275 115.713 9.2055 116.03 9.9365C116.353 10.6675 116.515 11.4892 116.515 12.4015C116.515 13.3195 116.353 14.144 116.03 14.875C115.707 15.606 115.243 16.1868 114.636 16.6175C114.03 17.0425 113.299 17.255 112.443 17.255ZM108.312 21.08V7.82H109.434V14.7305H109.57V21.08H108.312ZM112.316 16.0905C112.956 16.0905 113.489 15.929 113.914 15.606C114.339 15.283 114.656 14.8438 114.866 14.2885C115.081 13.7275 115.189 13.0985 115.189 12.4015C115.189 11.7102 115.084 11.0868 114.874 10.5315C114.665 9.97617 114.345 9.537 113.914 9.214C113.489 8.891 112.948 8.7295 112.29 8.7295C111.65 8.7295 111.117 8.88533 110.692 9.197C110.273 9.50867 109.959 9.94217 109.749 10.4975C109.539 11.0472 109.434 11.6818 109.434 12.4015C109.434 13.1098 109.539 13.7445 109.749 14.3055C109.959 14.8608 110.276 15.2972 110.701 15.6145C111.126 15.9318 111.664 16.0905 112.316 16.0905ZM122.215 17.255C121.303 17.255 120.523 17.0482 119.877 16.6345C119.231 16.2208 118.736 15.6485 118.39 14.9175C118.044 14.1865 117.871 13.3478 117.871 12.4015C117.871 11.4382 118.047 10.5938 118.398 9.8685C118.75 9.14317 119.248 8.57933 119.894 8.177C120.546 7.769 121.32 7.565 122.215 7.565C123.133 7.565 123.915 7.77183 124.561 8.1855C125.213 8.5935 125.708 9.163 126.048 9.894C126.394 10.6193 126.567 11.4552 126.567 12.4015C126.567 13.3648 126.394 14.212 126.048 14.943C125.703 15.6683 125.204 16.235 124.552 16.643C123.901 17.051 123.122 17.255 122.215 17.255ZM122.215 16.0565C123.235 16.0565 123.994 15.7193 124.493 15.045C124.992 14.365 125.241 13.4838 125.241 12.4015C125.241 11.2908 124.989 10.4068 124.484 9.7495C123.986 9.09217 123.229 8.7635 122.215 8.7635C121.529 8.7635 120.963 8.91933 120.515 9.231C120.073 9.537 119.741 9.96483 119.52 10.5145C119.305 11.0585 119.197 11.6875 119.197 12.4015C119.197 13.5065 119.452 14.3933 119.962 15.062C120.472 15.725 121.223 16.0565 122.215 16.0565ZM131.582 17.255C130.659 17.255 129.851 17.0538 129.16 16.6515C128.474 16.2435 127.933 15.6797 127.536 14.96L128.539 14.3225C128.874 14.8892 129.29 15.3198 129.789 15.6145C130.288 15.9092 130.86 16.0565 131.506 16.0565C132.18 16.0565 132.721 15.9007 133.129 15.589C133.537 15.2773 133.741 14.8495 133.741 14.3055C133.741 13.9315 133.654 13.634 133.478 13.413C133.308 13.192 133.047 13.0333 132.696 12.937C132.35 12.8407 131.917 12.7925 131.395 12.7925H130.307V11.7215H131.378C132.013 11.7215 132.523 11.6082 132.908 11.3815C133.299 11.1492 133.495 10.7865 133.495 10.2935C133.495 9.77217 133.299 9.38683 132.908 9.1375C132.523 8.8825 132.061 8.755 131.523 8.755C130.979 8.755 130.463 8.86833 129.976 9.095C129.494 9.316 129.089 9.60217 128.76 9.9535L127.961 9.112C128.42 8.60767 128.956 8.22517 129.568 7.9645C130.186 7.69817 130.868 7.565 131.616 7.565C132.206 7.565 132.738 7.66983 133.214 7.8795C133.696 8.0835 134.076 8.38383 134.353 8.7805C134.637 9.17717 134.778 9.65317 134.778 10.2085C134.778 10.7298 134.651 11.1803 134.396 11.56C134.147 11.9397 133.792 12.2542 133.333 12.5035L133.265 12.036C133.662 12.1097 133.991 12.2683 134.251 12.512C134.512 12.7557 134.705 13.0475 134.829 13.3875C134.954 13.7275 135.016 14.0732 135.016 14.4245C135.016 15.0082 134.863 15.5125 134.557 15.9375C134.257 16.3568 133.846 16.6827 133.325 16.915C132.809 17.1417 132.228 17.255 131.582 17.255ZM139.383 17V8.976H136.127V7.82H143.888V8.976H140.632V17H139.383ZM149.631 17.255C148.787 17.255 148.073 17.0425 147.489 16.6175C146.905 16.1868 146.463 15.606 146.163 14.875C145.863 14.1383 145.712 13.3138 145.712 12.4015C145.712 11.4722 145.863 10.6448 146.163 9.9195C146.469 9.1885 146.917 8.61333 147.506 8.194C148.095 7.77467 148.821 7.565 149.682 7.565C150.521 7.565 151.24 7.7775 151.841 8.2025C152.442 8.6275 152.901 9.2055 153.218 9.9365C153.541 10.6675 153.702 11.4892 153.702 12.4015C153.702 13.3195 153.541 14.144 153.218 14.875C152.895 15.606 152.43 16.1868 151.824 16.6175C151.218 17.0425 150.487 17.255 149.631 17.255ZM145.5 21.08V7.82H146.622V14.7305H146.758V21.08H145.5ZM149.503 16.0905C150.144 16.0905 150.676 15.929 151.101 15.606C151.526 15.283 151.844 14.8438 152.053 14.2885C152.269 13.7275 152.376 13.0985 152.376 12.4015C152.376 11.7102 152.272 11.0868 152.062 10.5315C151.852 9.97617 151.532 9.537 151.101 9.214C150.676 8.891 150.135 8.7295 149.478 8.7295C148.838 8.7295 148.305 8.88533 147.88 9.197C147.461 9.50867 147.146 9.94217 146.936 10.4975C146.727 11.0472 146.622 11.6818 146.622 12.4015C146.622 13.1098 146.727 13.7445 146.936 14.3055C147.146 14.8608 147.463 15.2972 147.888 15.6145C148.313 15.9318 148.852 16.0905 149.503 16.0905ZM159.402 17.255C158.49 17.255 157.711 17.0482 157.065 16.6345C156.419 16.2208 155.923 15.6485 155.577 14.9175C155.232 14.1865 155.059 13.3478 155.059 12.4015C155.059 11.4382 155.235 10.5938 155.586 9.8685C155.937 9.14317 156.436 8.57933 157.082 8.177C157.734 7.769 158.507 7.565 159.402 7.565C160.32 7.565 161.102 7.77183 161.748 8.1855C162.4 8.5935 162.896 9.163 163.236 9.894C163.582 10.6193 163.754 11.4552 163.754 12.4015C163.754 13.3648 163.582 14.212 163.236 14.943C162.89 15.6683 162.392 16.235 161.74 16.643C161.088 17.051 160.309 17.255 159.402 17.255ZM159.402 16.0565C160.422 16.0565 161.182 15.7193 161.68 15.045C162.179 14.365 162.428 13.4838 162.428 12.4015C162.428 11.2908 162.176 10.4068 161.672 9.7495C161.173 9.09217 160.417 8.7635 159.402 8.7635C158.717 8.7635 158.15 8.91933 157.702 9.231C157.26 9.537 156.929 9.96483 156.708 10.5145C156.493 11.0585 156.385 11.6875 156.385 12.4015C156.385 13.5065 156.64 14.3933 157.15 15.062C157.66 15.725 158.411 16.0565 159.402 16.0565ZM171.248 17V13.583C170.942 13.736 170.565 13.8692 170.117 13.9825C169.67 14.0958 169.188 14.1525 168.672 14.1525C167.743 14.1525 166.989 13.9457 166.411 13.532C165.833 13.1183 165.457 12.5205 165.281 11.7385C165.224 11.5062 165.185 11.2597 165.162 10.999C165.145 10.7383 165.134 10.5032 165.128 10.2935C165.122 10.0838 165.119 9.93367 165.119 9.843V7.82H166.377V9.843C166.377 10.03 166.383 10.2425 166.394 10.4805C166.406 10.7185 166.431 10.9508 166.471 11.1775C166.584 11.7952 166.839 12.2627 167.236 12.58C167.638 12.8973 168.202 13.056 168.927 13.056C169.381 13.056 169.809 12.9993 170.211 12.886C170.619 12.767 170.965 12.6083 171.248 12.41V7.82H172.497V17H171.248ZM174.868 17L174.877 7.82H176.135V12.24L180.232 7.82H181.898L177.597 12.41L182.459 17H180.64L176.135 12.58V17H174.868ZM185.937 17.255C185.245 17.255 184.664 17.1303 184.194 16.881C183.729 16.6317 183.381 16.3002 183.149 15.8865C182.916 15.4728 182.8 15.0223 182.8 14.535C182.8 14.0363 182.899 13.6113 183.098 13.26C183.302 12.903 183.576 12.6112 183.922 12.3845C184.273 12.1578 184.679 11.985 185.138 11.866C185.602 11.7527 186.115 11.6535 186.676 11.5685C187.243 11.4778 187.795 11.4013 188.334 11.339C188.878 11.271 189.354 11.2058 189.762 11.1435L189.32 11.4155C189.337 10.5088 189.161 9.83733 188.793 9.401C188.424 8.96467 187.784 8.7465 186.872 8.7465C186.243 8.7465 185.71 8.88817 185.274 9.1715C184.843 9.45483 184.54 9.9025 184.364 10.5145L183.149 10.1575C183.358 9.33583 183.78 8.69833 184.415 8.245C185.05 7.79167 185.874 7.565 186.889 7.565C187.727 7.565 188.438 7.72367 189.022 8.041C189.611 8.35267 190.028 8.806 190.272 9.401C190.385 9.66733 190.459 9.96483 190.493 10.2935C190.527 10.6222 190.544 10.9565 190.544 11.2965V17H189.43V14.6965L189.753 14.8325C189.441 15.6202 188.957 16.2208 188.3 16.6345C187.642 17.0482 186.855 17.255 185.937 17.255ZM186.081 16.1755C186.665 16.1755 187.175 16.0707 187.611 15.861C188.047 15.6513 188.399 15.3652 188.665 15.0025C188.931 14.6342 189.104 14.2205 189.184 13.7615C189.252 13.4668 189.288 13.1438 189.294 12.7925C189.3 12.4355 189.303 12.1692 189.303 11.9935L189.779 12.24C189.354 12.2967 188.892 12.3533 188.393 12.41C187.9 12.4667 187.413 12.5318 186.931 12.6055C186.455 12.6792 186.024 12.767 185.639 12.869C185.378 12.9427 185.126 13.0475 184.883 13.1835C184.639 13.3138 184.438 13.4895 184.279 13.7105C184.126 13.9315 184.05 14.2063 184.05 14.535C184.05 14.8013 184.115 15.0592 184.245 15.3085C184.381 15.5578 184.596 15.7647 184.891 15.929C185.191 16.0933 185.588 16.1755 186.081 16.1755ZM196.151 17V7.82H197.401V11.8065H202.577V7.82H203.827V17H202.577V13.005H197.401V17H196.151ZM208.83 17.255C208.139 17.255 207.558 17.1303 207.088 16.881C206.623 16.6317 206.275 16.3002 206.042 15.8865C205.81 15.4728 205.694 15.0223 205.694 14.535C205.694 14.0363 205.793 13.6113 205.991 13.26C206.195 12.903 206.47 12.6112 206.816 12.3845C207.167 12.1578 207.572 11.985 208.031 11.866C208.496 11.7527 209.009 11.6535 209.57 11.5685C210.136 11.4778 210.689 11.4013 211.227 11.339C211.771 11.271 212.247 11.2058 212.655 11.1435L212.213 11.4155C212.23 10.5088 212.055 9.83733 211.686 9.401C211.318 8.96467 210.678 8.7465 209.765 8.7465C209.136 8.7465 208.604 8.88817 208.167 9.1715C207.737 9.45483 207.433 9.9025 207.258 10.5145L206.042 10.1575C206.252 9.33583 206.674 8.69833 207.309 8.245C207.943 7.79167 208.768 7.565 209.782 7.565C210.621 7.565 211.332 7.72367 211.916 8.041C212.505 8.35267 212.922 8.806 213.165 9.401C213.279 9.66733 213.352 9.96483 213.386 10.2935C213.42 10.6222 213.437 10.9565 213.437 11.2965V17H212.324V14.6965L212.647 14.8325C212.335 15.6202 211.851 16.2208 211.193 16.6345C210.536 17.0482 209.748 17.255 208.83 17.255ZM208.975 16.1755C209.558 16.1755 210.068 16.0707 210.505 15.861C210.941 15.6513 211.292 15.3652 211.559 15.0025C211.825 14.6342 211.998 14.2205 212.077 13.7615C212.145 13.4668 212.182 13.1438 212.188 12.7925C212.193 12.4355 212.196 12.1692 212.196 11.9935L212.672 12.24C212.247 12.2967 211.785 12.3533 211.287 12.41C210.794 12.4667 210.306 12.5318 209.825 12.6055C209.349 12.6792 208.918 12.767 208.533 12.869C208.272 12.9427 208.02 13.0475 207.776 13.1835C207.533 13.3138 207.331 13.4895 207.173 13.7105C207.02 13.9315 206.943 14.2063 206.943 14.535C206.943 14.8013 207.008 15.0592 207.139 15.3085C207.275 15.5578 207.49 15.7647 207.785 15.929C208.085 16.0933 208.482 16.1755 208.975 16.1755ZM224.442 17V14.6285H218.713V13.4385L222.81 4.76H224.213L220.116 13.4385H224.442V9.8685H225.7V13.4385H227.035V14.6285H225.7V17H224.442ZM232.475 17V7.82H239.777V17H238.527V9.0185H233.725V17H232.475ZM241.313 17V15.9035C241.653 15.9658 241.91 15.9517 242.086 15.861C242.267 15.7647 242.401 15.606 242.486 15.385C242.571 15.1583 242.641 14.8778 242.698 14.5435C242.789 13.9882 242.871 13.3762 242.945 12.7075C243.018 12.0388 243.083 11.3022 243.14 10.4975C243.202 9.68717 243.265 8.79467 243.327 7.82H249.566V17H248.325V9.0185H244.483C244.443 9.61917 244.398 10.217 244.347 10.812C244.296 11.407 244.242 11.9793 244.186 12.529C244.135 13.073 244.078 13.5745 244.016 14.0335C243.953 14.4925 243.888 14.8892 243.82 15.2235C243.718 15.7278 243.582 16.1302 243.412 16.4305C243.248 16.7308 243.001 16.9292 242.673 17.0255C242.344 17.1218 241.891 17.1133 241.313 17ZM254.567 17.255C253.876 17.255 253.295 17.1303 252.825 16.881C252.36 16.6317 252.012 16.3002 251.779 15.8865C251.547 15.4728 251.431 15.0223 251.431 14.535C251.431 14.0363 251.53 13.6113 251.728 13.26C251.932 12.903 252.207 12.6112 252.553 12.3845C252.904 12.1578 253.309 11.985 253.768 11.866C254.233 11.7527 254.746 11.6535 255.307 11.5685C255.874 11.4778 256.426 11.4013 256.964 11.339C257.508 11.271 257.984 11.2058 258.392 11.1435L257.95 11.4155C257.967 10.5088 257.792 9.83733 257.423 9.401C257.055 8.96467 256.415 8.7465 255.502 8.7465C254.873 8.7465 254.341 8.88817 253.904 9.1715C253.474 9.45483 253.171 9.9025 252.995 10.5145L251.779 10.1575C251.989 9.33583 252.411 8.69833 253.046 8.245C253.681 7.79167 254.505 7.565 255.519 7.565C256.358 7.565 257.069 7.72367 257.653 8.041C258.242 8.35267 258.659 8.806 258.902 9.401C259.016 9.66733 259.089 9.96483 259.123 10.2935C259.157 10.6222 259.174 10.9565 259.174 11.2965V17H258.061V14.6965L258.384 14.8325C258.072 15.6202 257.588 16.2208 256.93 16.6345C256.273 17.0482 255.485 17.255 254.567 17.255ZM254.712 16.1755C255.296 16.1755 255.806 16.0707 256.242 15.861C256.678 15.6513 257.03 15.3652 257.296 15.0025C257.562 14.6342 257.735 14.2205 257.814 13.7615C257.882 13.4668 257.919 13.1438 257.925 12.7925C257.931 12.4355 257.933 12.1692 257.933 11.9935L258.409 12.24C257.984 12.2967 257.523 12.3533 257.024 12.41C256.531 12.4667 256.044 12.5318 255.562 12.6055C255.086 12.6792 254.655 12.767 254.27 12.869C254.009 12.9427 253.757 13.0475 253.513 13.1835C253.27 13.3138 253.069 13.4895 252.91 13.7105C252.757 13.9315 252.68 14.2063 252.68 14.535C252.68 14.8013 252.746 15.0592 252.876 15.3085C253.012 15.5578 253.227 15.7647 253.522 15.929C253.822 16.0933 254.219 16.1755 254.712 16.1755ZM263.878 17V8.976H260.622V7.82H268.383V8.976H265.127V17H263.878ZM273.888 17.255C272.993 17.255 272.216 17.0567 271.559 16.66C270.907 16.2633 270.4 15.7052 270.037 14.9855C269.675 14.2658 269.493 13.4215 269.493 12.4525C269.493 11.4495 269.672 10.5825 270.029 9.8515C270.386 9.1205 270.887 8.55667 271.533 8.16C272.185 7.76333 272.953 7.565 273.837 7.565C274.744 7.565 275.517 7.77467 276.157 8.194C276.798 8.60767 277.282 9.20267 277.611 9.979C277.94 10.7553 278.09 11.6818 278.061 12.7585H276.786V12.3165C276.764 11.1265 276.506 10.2283 276.013 9.622C275.526 9.01567 274.812 8.7125 273.871 8.7125C272.885 8.7125 272.128 9.03267 271.601 9.673C271.08 10.3133 270.819 11.2257 270.819 12.41C270.819 13.566 271.08 14.4642 271.601 15.1045C272.128 15.7392 272.874 16.0565 273.837 16.0565C274.494 16.0565 275.067 15.9063 275.554 15.606C276.047 15.3 276.435 14.8608 276.718 14.2885L277.883 14.739C277.52 15.538 276.985 16.1585 276.276 16.6005C275.574 17.0368 274.778 17.255 273.888 17.255ZM270.377 12.7585V11.713H277.39V12.7585H270.377ZM278.596 17L282.472 12.41L278.757 7.82H280.168L283.789 12.3505V7.82H284.945V12.3505L288.566 7.82H289.969L286.254 12.41L290.13 17H288.677L284.945 12.4695V17H283.789V12.4695L280.049 17H278.596ZM291.656 6.0775V4.675H292.905V6.0775H291.656ZM291.656 17V7.82H292.905V17H291.656Z" fill="#929292"/>
<circle cx="9" cy="9" r="9" fill="#FFE81A"/>
<path d="M12 7L7.875 11.125L6 9.25" stroke="black" stroke-linecap="square" stroke-linejoin="round"/>
</svg>
