<svg width="229" height="18" viewBox="0 0 229 18" fill="none" xmlns="http://www.w3.org/2000/svg">
<path d="M27.368 14V4.64H28.2455L31.9245 12.5115L35.584 4.64H36.4745V13.9935H35.5645V6.772L32.23 14H31.6125L28.2845 6.772V14H27.368ZM41.2302 14.195C40.5325 14.195 39.9367 14.0368 39.4427 13.7205C38.9487 13.4042 38.5695 12.9665 38.3052 12.4075C38.0408 11.8485 37.9087 11.2072 37.9087 10.4835C37.9087 9.74683 38.043 9.10117 38.3117 8.5465C38.5803 7.99183 38.9617 7.56067 39.4557 7.253C39.954 6.941 40.5455 6.785 41.2302 6.785C41.9322 6.785 42.5302 6.94317 43.0242 7.2595C43.5225 7.5715 43.9017 8.007 44.1617 8.566C44.426 9.12067 44.5582 9.75983 44.5582 10.4835C44.5582 11.2202 44.426 11.868 44.1617 12.427C43.8973 12.9817 43.516 13.415 43.0177 13.727C42.5193 14.039 41.9235 14.195 41.2302 14.195ZM41.2302 13.2785C42.0102 13.2785 42.5908 13.0207 42.9722 12.505C43.3535 11.985 43.5442 11.3112 43.5442 10.4835C43.5442 9.63417 43.3513 8.95817 42.9657 8.4555C42.5843 7.95283 42.0058 7.7015 41.2302 7.7015C40.7058 7.7015 40.2725 7.82067 39.9302 8.059C39.5922 8.293 39.3387 8.62017 39.1697 9.0405C39.005 9.4565 38.9227 9.9375 38.9227 10.4835C38.9227 11.3285 39.1177 12.0067 39.5077 12.518C39.8977 13.025 40.4718 13.2785 41.2302 13.2785ZM45.0851 14L48.0491 10.49L45.2086 6.98H46.2876L49.0566 10.4445V6.98H49.9406V10.4445L52.7096 6.98H53.7821L50.9416 10.49L53.9056 14H52.7941L49.9406 10.5355V14H49.0566V10.5355L46.1966 14H45.0851ZM54.0383 14V13.1615C54.2983 13.2092 54.4955 13.1983 54.6298 13.129C54.7685 13.0553 54.8703 12.934 54.9353 12.765C55.0003 12.5917 55.0545 12.3772 55.0978 12.1215C55.1672 11.6968 55.23 11.2288 55.2863 10.7175C55.3427 10.2062 55.3925 9.64283 55.4358 9.0275C55.4835 8.40783 55.5312 7.72533 55.5788 6.98H60.3498V14H59.4008V7.8965H56.4628C56.4325 8.35583 56.3978 8.813 56.3588 9.268C56.3198 9.723 56.2787 10.1607 56.2353 10.581C56.1963 10.997 56.153 11.3805 56.1053 11.7315C56.0577 12.0825 56.0078 12.3858 55.9558 12.6415C55.8778 13.0272 55.7738 13.3348 55.6438 13.5645C55.5182 13.7942 55.3297 13.9458 55.0783 14.0195C54.827 14.0932 54.4803 14.0867 54.0383 14ZM67.7429 6.98V14H66.8134V8.5335L62.9654 14H62.1594V6.98H63.0889V12.401L66.9434 6.98H67.7429ZM69.5607 14V6.98H72.4532C72.6006 6.98 72.7782 6.98867 72.9862 7.006C73.1986 7.02333 73.3957 7.05583 73.5777 7.1035C73.9721 7.2075 74.2884 7.41983 74.5267 7.7405C74.7694 8.06117 74.8907 8.44683 74.8907 8.8975C74.8907 9.14883 74.8517 9.37417 74.7737 9.5735C74.7001 9.7685 74.5939 9.9375 74.4552 10.0805C74.3902 10.1542 74.3187 10.2192 74.2407 10.2755C74.1627 10.3275 74.0869 10.3708 74.0132 10.4055C74.1519 10.4315 74.3014 10.4922 74.4617 10.5875C74.7131 10.7348 74.9037 10.9342 75.0337 11.1855C75.1637 11.4325 75.2287 11.7337 75.2287 12.089C75.2287 12.57 75.1139 12.9622 74.8842 13.2655C74.6546 13.5688 74.3469 13.7768 73.9612 13.8895C73.7879 13.9372 73.5994 13.9675 73.3957 13.9805C73.1964 13.9935 73.0079 14 72.8302 14H69.5607ZM70.5227 13.1875H72.7847C72.8757 13.1875 72.9906 13.181 73.1292 13.168C73.2679 13.1507 73.3914 13.129 73.4997 13.103C73.7554 13.038 73.9417 12.908 74.0587 12.713C74.1801 12.5137 74.2407 12.297 74.2407 12.063C74.2407 11.7553 74.1497 11.504 73.9677 11.309C73.7901 11.1097 73.5517 10.9883 73.2527 10.945C73.1531 10.9233 73.0491 10.9103 72.9407 10.906C72.8324 10.9017 72.7349 10.8995 72.6482 10.8995H70.5227V13.1875ZM70.5227 10.0805H72.4857C72.5984 10.0805 72.7241 10.074 72.8627 10.061C73.0057 10.0437 73.1292 10.0155 73.2332 9.9765C73.4586 9.8985 73.6232 9.76417 73.7272 9.5735C73.8356 9.38283 73.8897 9.17483 73.8897 8.9495C73.8897 8.7025 73.8312 8.48583 73.7142 8.2995C73.6016 8.11317 73.4304 7.98317 73.2007 7.9095C73.0447 7.85317 72.8757 7.82067 72.6937 7.812C72.5161 7.80333 72.4034 7.799 72.3557 7.799H70.5227V10.0805ZM78.5328 14.195C78.0041 14.195 77.5599 14.0997 77.2003 13.909C76.8449 13.7183 76.5784 13.4648 76.4008 13.1485C76.2231 12.8322 76.1343 12.4877 76.1343 12.115C76.1343 11.7337 76.2101 11.4087 76.3618 11.14C76.5178 10.867 76.7279 10.6438 76.9923 10.4705C77.2609 10.2972 77.5708 10.165 77.9218 10.074C78.2771 9.98733 78.6693 9.9115 79.0983 9.8465C79.5316 9.77717 79.9541 9.71867 80.3658 9.671C80.7818 9.619 81.1458 9.56917 81.4578 9.5215L81.1198 9.7295C81.1328 9.03617 80.9984 8.52267 80.7168 8.189C80.4351 7.85533 79.9454 7.6885 79.2478 7.6885C78.7668 7.6885 78.3594 7.79683 78.0258 8.0135C77.6964 8.23017 77.4646 8.5725 77.3303 9.0405L76.4008 8.7675C76.5611 8.13917 76.8839 7.65167 77.3693 7.305C77.8546 6.95833 78.4851 6.785 79.2608 6.785C79.9021 6.785 80.4459 6.90633 80.8923 7.149C81.3429 7.38733 81.6614 7.734 81.8478 8.189C81.9344 8.39267 81.9908 8.62017 82.0168 8.8715C82.0428 9.12283 82.0558 9.3785 82.0558 9.6385V14H81.2043V12.2385L81.4513 12.3425C81.2129 12.9448 80.8424 13.4042 80.3398 13.7205C79.8371 14.0368 79.2348 14.195 78.5328 14.195ZM78.6433 13.3695C79.0896 13.3695 79.4796 13.2893 79.8133 13.129C80.1469 12.9687 80.4156 12.7498 80.6193 12.4725C80.8229 12.1908 80.9551 11.8745 81.0158 11.5235C81.0678 11.2982 81.0959 11.0512 81.1003 10.7825C81.1046 10.5095 81.1068 10.3058 81.1068 10.1715L81.4708 10.36C81.1458 10.4033 80.7926 10.4467 80.4113 10.49C80.0343 10.5333 79.6616 10.5832 79.2933 10.6395C78.9293 10.6958 78.5999 10.763 78.3053 10.841C78.1059 10.8973 77.9131 10.9775 77.7268 11.0815C77.5404 11.1812 77.3866 11.3155 77.2653 11.4845C77.1483 11.6535 77.0898 11.8637 77.0898 12.115C77.0898 12.3187 77.1396 12.5158 77.2393 12.7065C77.3433 12.8972 77.5079 13.0553 77.7333 13.181C77.9629 13.3067 78.2663 13.3695 78.6433 13.3695ZM89.5029 14.195C88.8573 14.195 88.3113 14.0325 87.8649 13.7075C87.4186 13.3782 87.0806 12.934 86.8509 12.375C86.6213 11.8117 86.5064 11.1812 86.5064 10.4835C86.5064 9.77283 86.6213 9.14017 86.8509 8.5855C87.0849 8.0265 87.4273 7.58667 87.8779 7.266C88.3286 6.94533 88.8833 6.785 89.5419 6.785C90.1833 6.785 90.7336 6.9475 91.1929 7.2725C91.6523 7.5975 92.0033 8.0395 92.2459 8.5985C92.4929 9.1575 92.6164 9.78583 92.6164 10.4835C92.6164 11.1855 92.4929 11.816 92.2459 12.375C91.9989 12.934 91.6436 13.3782 91.1799 13.7075C90.7163 14.0325 90.1573 14.195 89.5029 14.195ZM86.3439 17.12V6.98H87.2019V12.2645H87.3059V17.12H86.3439ZM89.4054 13.3045C89.8951 13.3045 90.3024 13.181 90.6274 12.934C90.9524 12.687 91.1951 12.3512 91.3554 11.9265C91.5201 11.4975 91.6024 11.0165 91.6024 10.4835C91.6024 9.95483 91.5223 9.47817 91.3619 9.0535C91.2016 8.62883 90.9568 8.293 90.6274 8.046C90.3024 7.799 89.8886 7.6755 89.3859 7.6755C88.8963 7.6755 88.4889 7.79467 88.1639 8.033C87.8433 8.27133 87.6028 8.60283 87.4424 9.0275C87.2821 9.44783 87.2019 9.93317 87.2019 10.4835C87.2019 11.0252 87.2821 11.5105 87.4424 11.9395C87.6028 12.3642 87.8454 12.6978 88.1704 12.9405C88.4954 13.1832 88.9071 13.3045 89.4054 13.3045ZM96.9753 14.195C96.2776 14.195 95.6818 14.0368 95.1878 13.7205C94.6938 13.4042 94.3146 12.9665 94.0503 12.4075C93.786 11.8485 93.6538 11.2072 93.6538 10.4835C93.6538 9.74683 93.7881 9.10117 94.0568 8.5465C94.3255 7.99183 94.7068 7.56067 95.2008 7.253C95.6991 6.941 96.2906 6.785 96.9753 6.785C97.6773 6.785 98.2753 6.94317 98.7693 7.2595C99.2676 7.5715 99.6468 8.007 99.9068 8.566C100.171 9.12067 100.303 9.75983 100.303 10.4835C100.303 11.2202 100.171 11.868 99.9068 12.427C99.6425 12.9817 99.2611 13.415 98.7628 13.727C98.2645 14.039 97.6686 14.195 96.9753 14.195ZM96.9753 13.2785C97.7553 13.2785 98.336 13.0207 98.7173 12.505C99.0986 11.985 99.2893 11.3112 99.2893 10.4835C99.2893 9.63417 99.0965 8.95817 98.7108 8.4555C98.3295 7.95283 97.751 7.7015 96.9753 7.7015C96.451 7.7015 96.0176 7.82067 95.6753 8.059C95.3373 8.293 95.0838 8.62017 94.9148 9.0405C94.7501 9.4565 94.6678 9.9375 94.6678 10.4835C94.6678 11.3285 94.8628 12.0067 95.2528 12.518C95.6428 13.025 96.217 13.2785 96.9753 13.2785ZM104.139 14.195C103.432 14.195 102.815 14.0412 102.286 13.7335C101.762 13.4215 101.348 12.9903 101.045 12.44L101.812 11.9525C102.067 12.3858 102.386 12.7152 102.767 12.9405C103.149 13.1658 103.586 13.2785 104.08 13.2785C104.596 13.2785 105.01 13.1593 105.322 12.921C105.634 12.6827 105.79 12.3555 105.79 11.9395C105.79 11.6535 105.723 11.426 105.588 11.257C105.458 11.088 105.259 10.9667 104.99 10.893C104.726 10.8193 104.394 10.7825 103.996 10.7825H103.164V9.9635H103.983C104.468 9.9635 104.858 9.87683 105.153 9.7035C105.452 9.52583 105.601 9.2485 105.601 8.8715C105.601 8.47283 105.452 8.17817 105.153 7.9875C104.858 7.7925 104.505 7.695 104.093 7.695C103.677 7.695 103.283 7.78167 102.91 7.955C102.542 8.124 102.232 8.34283 101.981 8.6115L101.37 7.968C101.721 7.58233 102.13 7.28983 102.598 7.0905C103.071 6.88683 103.593 6.785 104.165 6.785C104.615 6.785 105.023 6.86517 105.387 7.0255C105.755 7.1815 106.045 7.41117 106.258 7.7145C106.474 8.01783 106.583 8.38183 106.583 8.8065C106.583 9.20517 106.485 9.54967 106.29 9.84C106.1 10.1303 105.829 10.3708 105.478 10.5615L105.426 10.204C105.729 10.2603 105.98 10.3817 106.18 10.568C106.379 10.7543 106.526 10.9775 106.622 11.2375C106.717 11.4975 106.765 11.7618 106.765 12.0305C106.765 12.4768 106.648 12.8625 106.414 13.1875C106.184 13.5082 105.87 13.7573 105.471 13.935C105.077 14.1083 104.633 14.195 104.139 14.195ZM110.104 14V7.864H107.614V6.98H113.549V7.864H111.059V14H110.104ZM117.94 14.195C117.295 14.195 116.749 14.0325 116.302 13.7075C115.856 13.3782 115.518 12.934 115.288 12.375C115.059 11.8117 114.944 11.1812 114.944 10.4835C114.944 9.77283 115.059 9.14017 115.288 8.5855C115.522 8.0265 115.865 7.58667 116.315 7.266C116.766 6.94533 117.321 6.785 117.979 6.785C118.621 6.785 119.171 6.9475 119.63 7.2725C120.09 7.5975 120.441 8.0395 120.683 8.5985C120.93 9.1575 121.054 9.78583 121.054 10.4835C121.054 11.1855 120.93 11.816 120.683 12.375C120.436 12.934 120.081 13.3782 119.617 13.7075C119.154 14.0325 118.595 14.195 117.94 14.195ZM114.781 17.12V6.98H115.639V12.2645H115.743V17.12H114.781ZM117.843 13.3045C118.333 13.3045 118.74 13.181 119.065 12.934C119.39 12.687 119.633 12.3512 119.793 11.9265C119.958 11.4975 120.04 11.0165 120.04 10.4835C120.04 9.95483 119.96 9.47817 119.799 9.0535C119.639 8.62883 119.394 8.293 119.065 8.046C118.74 7.799 118.326 7.6755 117.823 7.6755C117.334 7.6755 116.926 7.79467 116.601 8.033C116.281 8.27133 116.04 8.60283 115.88 9.0275C115.72 9.44783 115.639 9.93317 115.639 10.4835C115.639 11.0252 115.72 11.5105 115.88 11.9395C116.04 12.3642 116.283 12.6978 116.608 12.9405C116.933 13.1832 117.345 13.3045 117.843 13.3045ZM125.413 14.195C124.715 14.195 124.119 14.0368 123.625 13.7205C123.131 13.4042 122.752 12.9665 122.488 12.4075C122.223 11.8485 122.091 11.2072 122.091 10.4835C122.091 9.74683 122.226 9.10117 122.494 8.5465C122.763 7.99183 123.144 7.56067 123.638 7.253C124.137 6.941 124.728 6.785 125.413 6.785C126.115 6.785 126.713 6.94317 127.207 7.2595C127.705 7.5715 128.084 8.007 128.344 8.566C128.609 9.12067 128.741 9.75983 128.741 10.4835C128.741 11.2202 128.609 11.868 128.344 12.427C128.08 12.9817 127.699 13.415 127.2 13.727C126.702 14.039 126.106 14.195 125.413 14.195ZM125.413 13.2785C126.193 13.2785 126.773 13.0207 127.155 12.505C127.536 11.985 127.727 11.3112 127.727 10.4835C127.727 9.63417 127.534 8.95817 127.148 8.4555C126.767 7.95283 126.188 7.7015 125.413 7.7015C124.888 7.7015 124.455 7.82067 124.113 8.059C123.775 8.293 123.521 8.62017 123.352 9.0405C123.188 9.4565 123.105 9.9375 123.105 10.4835C123.105 11.3285 123.3 12.0067 123.69 12.518C124.08 13.025 124.654 13.2785 125.413 13.2785ZM134.471 14V11.387C134.237 11.504 133.949 11.6058 133.607 11.6925C133.264 11.7792 132.896 11.8225 132.502 11.8225C131.791 11.8225 131.215 11.6643 130.773 11.348C130.331 11.0317 130.042 10.5745 129.908 9.9765C129.865 9.79883 129.834 9.61033 129.817 9.411C129.804 9.21167 129.795 9.03183 129.791 8.8715C129.787 8.71117 129.785 8.59633 129.785 8.527V6.98H130.747V8.527C130.747 8.67 130.751 8.8325 130.76 9.0145C130.768 9.1965 130.788 9.37417 130.818 9.5475C130.905 10.0198 131.1 10.3773 131.403 10.62C131.711 10.8627 132.142 10.984 132.697 10.984C133.043 10.984 133.37 10.9407 133.678 10.854C133.99 10.763 134.254 10.6417 134.471 10.49V6.98H135.427V14H134.471ZM137.239 14L137.246 6.98H138.208V10.36L141.341 6.98H142.615L139.326 10.49L143.044 14H141.653L138.208 10.62V14H137.239ZM145.704 14.195C145.175 14.195 144.731 14.0997 144.371 13.909C144.016 13.7183 143.749 13.4648 143.572 13.1485C143.394 12.8322 143.305 12.4877 143.305 12.115C143.305 11.7337 143.381 11.4087 143.533 11.14C143.689 10.867 143.899 10.6438 144.163 10.4705C144.432 10.2972 144.742 10.165 145.093 10.074C145.448 9.98733 145.84 9.9115 146.269 9.8465C146.702 9.77717 147.125 9.71867 147.537 9.671C147.953 9.619 148.317 9.56917 148.629 9.5215L148.291 9.7295C148.304 9.03617 148.169 8.52267 147.888 8.189C147.606 7.85533 147.116 7.6885 146.419 7.6885C145.938 7.6885 145.53 7.79683 145.197 8.0135C144.867 8.23017 144.635 8.5725 144.501 9.0405L143.572 8.7675C143.732 8.13917 144.055 7.65167 144.54 7.305C145.025 6.95833 145.656 6.785 146.432 6.785C147.073 6.785 147.617 6.90633 148.063 7.149C148.514 7.38733 148.832 7.734 149.019 8.189C149.105 8.39267 149.162 8.62017 149.188 8.8715C149.214 9.12283 149.227 9.3785 149.227 9.6385V14H148.375V12.2385L148.622 12.3425C148.384 12.9448 148.013 13.4042 147.511 13.7205C147.008 14.0368 146.406 14.195 145.704 14.195ZM145.814 13.3695C146.26 13.3695 146.65 13.2893 146.984 13.129C147.318 12.9687 147.586 12.7498 147.79 12.4725C147.994 12.1908 148.126 11.8745 148.187 11.5235C148.239 11.2982 148.267 11.0512 148.271 10.7825C148.275 10.5095 148.278 10.3058 148.278 10.1715L148.642 10.36C148.317 10.4033 147.963 10.4467 147.582 10.49C147.205 10.5333 146.832 10.5832 146.464 10.6395C146.1 10.6958 145.771 10.763 145.476 10.841C145.277 10.8973 145.084 10.9775 144.898 11.0815C144.711 11.1812 144.557 11.3155 144.436 11.4845C144.319 11.6535 144.261 11.8637 144.261 12.115C144.261 12.3187 144.31 12.5158 144.41 12.7065C144.514 12.8972 144.679 13.0553 144.904 13.181C145.134 13.3067 145.437 13.3695 145.814 13.3695ZM153.515 14V6.98H154.47V10.0285H158.429V6.98H159.384V14H158.429V10.945H154.47V14H153.515ZM163.21 14.195C162.682 14.195 162.238 14.0997 161.878 13.909C161.523 13.7183 161.256 13.4648 161.078 13.1485C160.901 12.8322 160.812 12.4877 160.812 12.115C160.812 11.7337 160.888 11.4087 161.039 11.14C161.195 10.867 161.406 10.6438 161.67 10.4705C161.939 10.2972 162.248 10.165 162.599 10.074C162.955 9.98733 163.347 9.9115 163.776 9.8465C164.209 9.77717 164.632 9.71867 165.043 9.671C165.459 9.619 165.823 9.56917 166.135 9.5215L165.797 9.7295C165.81 9.03617 165.676 8.52267 165.394 8.189C165.113 7.85533 164.623 7.6885 163.925 7.6885C163.444 7.6885 163.037 7.79683 162.703 8.0135C162.374 8.23017 162.142 8.5725 162.008 9.0405L161.078 8.7675C161.239 8.13917 161.562 7.65167 162.047 7.305C162.532 6.95833 163.163 6.785 163.938 6.785C164.58 6.785 165.124 6.90633 165.57 7.149C166.021 7.38733 166.339 7.734 166.525 8.189C166.612 8.39267 166.668 8.62017 166.694 8.8715C166.72 9.12283 166.733 9.3785 166.733 9.6385V14H165.882V12.2385L166.129 12.3425C165.891 12.9448 165.52 13.4042 165.017 13.7205C164.515 14.0368 163.912 14.195 163.21 14.195ZM163.321 13.3695C163.767 13.3695 164.157 13.2893 164.491 13.129C164.825 12.9687 165.093 12.7498 165.297 12.4725C165.501 12.1908 165.633 11.8745 165.693 11.5235C165.745 11.2982 165.774 11.0512 165.778 10.7825C165.782 10.5095 165.784 10.3058 165.784 10.1715L166.148 10.36C165.823 10.4033 165.47 10.4467 165.089 10.49C164.712 10.5333 164.339 10.5832 163.971 10.6395C163.607 10.6958 163.278 10.763 162.983 10.841C162.784 10.8973 162.591 10.9775 162.404 11.0815C162.218 11.1812 162.064 11.3155 161.943 11.4845C161.826 11.6535 161.767 11.8637 161.767 12.115C161.767 12.3187 161.817 12.5158 161.917 12.7065C162.021 12.8972 162.186 13.0553 162.411 13.181C162.641 13.3067 162.944 13.3695 163.321 13.3695ZM175.149 14V12.1865H170.768V11.2765L173.901 4.64H174.974L171.841 11.2765H175.149V8.5465H176.111V11.2765H177.132V12.1865H176.111V14H175.149ZM181.292 14V6.98H186.876V14H185.92V7.8965H182.248V14H181.292ZM188.05 14V13.1615C188.31 13.2092 188.507 13.1983 188.642 13.129C188.78 13.0553 188.882 12.934 188.947 12.765C189.012 12.5917 189.066 12.3772 189.11 12.1215C189.179 11.6968 189.242 11.2288 189.298 10.7175C189.354 10.2062 189.404 9.64283 189.448 9.0275C189.495 8.40783 189.543 7.72533 189.591 6.98H194.362V14H193.413V7.8965H190.475C190.444 8.35583 190.41 8.813 190.371 9.268C190.332 9.723 190.29 10.1607 190.247 10.581C190.208 10.997 190.165 11.3805 190.117 11.7315C190.069 12.0825 190.02 12.3858 189.968 12.6415C189.89 13.0272 189.786 13.3348 189.656 13.5645C189.53 13.7942 189.341 13.9458 189.09 14.0195C188.839 14.0932 188.492 14.0867 188.05 14ZM198.186 14.195C197.657 14.195 197.213 14.0997 196.854 13.909C196.498 13.7183 196.232 13.4648 196.054 13.1485C195.876 12.8322 195.788 12.4877 195.788 12.115C195.788 11.7337 195.863 11.4087 196.015 11.14C196.171 10.867 196.381 10.6438 196.646 10.4705C196.914 10.2972 197.224 10.165 197.575 10.074C197.93 9.98733 198.323 9.9115 198.752 9.8465C199.185 9.77717 199.607 9.71867 200.019 9.671C200.435 9.619 200.799 9.56917 201.111 9.5215L200.773 9.7295C200.786 9.03617 200.652 8.52267 200.37 8.189C200.088 7.85533 199.599 7.6885 198.901 7.6885C198.42 7.6885 198.013 7.79683 197.679 8.0135C197.35 8.23017 197.118 8.5725 196.984 9.0405L196.054 8.7675C196.214 8.13917 196.537 7.65167 197.023 7.305C197.508 6.95833 198.138 6.785 198.914 6.785C199.555 6.785 200.099 6.90633 200.546 7.149C200.996 7.38733 201.315 7.734 201.501 8.189C201.588 8.39267 201.644 8.62017 201.67 8.8715C201.696 9.12283 201.709 9.3785 201.709 9.6385V14H200.858V12.2385L201.105 12.3425C200.866 12.9448 200.496 13.4042 199.993 13.7205C199.49 14.0368 198.888 14.195 198.186 14.195ZM198.297 13.3695C198.743 13.3695 199.133 13.2893 199.467 13.129C199.8 12.9687 200.069 12.7498 200.273 12.4725C200.476 12.1908 200.608 11.8745 200.669 11.5235C200.721 11.2982 200.749 11.0512 200.754 10.7825C200.758 10.5095 200.76 10.3058 200.76 10.1715L201.124 10.36C200.799 10.4033 200.446 10.4467 200.065 10.49C199.688 10.5333 199.315 10.5832 198.947 10.6395C198.583 10.6958 198.253 10.763 197.959 10.841C197.759 10.8973 197.566 10.9775 197.38 11.0815C197.194 11.1812 197.04 11.3155 196.919 11.4845C196.802 11.6535 196.743 11.8637 196.743 12.115C196.743 12.3187 196.793 12.5158 196.893 12.7065C196.997 12.8972 197.161 13.0553 197.387 13.181C197.616 13.3067 197.92 13.3695 198.297 13.3695ZM205.306 14V7.864H202.816V6.98H208.751V7.864H206.261V14H205.306ZM212.961 14.195C212.276 14.195 211.682 14.0433 211.18 13.74C210.681 13.4367 210.293 13.0098 210.016 12.4595C209.739 11.9092 209.6 11.2635 209.6 10.5225C209.6 9.7555 209.737 9.0925 210.01 8.5335C210.283 7.9745 210.666 7.54333 211.16 7.24C211.658 6.93667 212.246 6.785 212.922 6.785C213.615 6.785 214.206 6.94533 214.696 7.266C215.186 7.58233 215.556 8.03733 215.808 8.631C216.059 9.22467 216.174 9.93317 216.152 10.7565H215.177V10.4185C215.16 9.5085 214.963 8.82167 214.586 8.358C214.213 7.89433 213.667 7.6625 212.948 7.6625C212.194 7.6625 211.615 7.90733 211.212 8.397C210.813 8.88667 210.614 9.58433 210.614 10.49C210.614 11.374 210.813 12.0608 211.212 12.5505C211.615 13.0358 212.185 13.2785 212.922 13.2785C213.424 13.2785 213.862 13.1637 214.235 12.934C214.612 12.7 214.908 12.3642 215.125 11.9265L216.016 12.271C215.738 12.882 215.329 13.3565 214.787 13.6945C214.25 14.0282 213.641 14.195 212.961 14.195ZM210.276 10.7565V9.957H215.639V10.7565H210.276ZM216.561 14L219.525 10.49L216.684 6.98H217.763L220.532 10.4445V6.98H221.416V10.4445L224.185 6.98H225.258L222.417 10.49L225.381 14H224.27L221.416 10.5355V14H220.532V10.5355L217.672 14H216.561ZM226.548 5.6475V4.575H227.503V5.6475H226.548ZM226.548 14V6.98H227.503V14H226.548Z" fill="#929292"/>
<circle cx="9" cy="9" r="9" fill="#FFE81A"/>
<path d="M12 7L7.875 11.125L6 9.25" stroke="black" stroke-linecap="square" stroke-linejoin="round"/>
</svg>
